<?xml version="1.0" encoding="UTF-8" standalone="no"?>
<svg
   xmlns:dc="http://purl.org/dc/elements/1.1/"
   xmlns:cc="http://creativecommons.org/ns#"
   xmlns:rdf="http://www.w3.org/1999/02/22-rdf-syntax-ns#"
   xmlns:svg="http://www.w3.org/2000/svg"
   xmlns="http://www.w3.org/2000/svg"
   xmlns:sodipodi="http://sodipodi.sourceforge.net/DTD/sodipodi-0.dtd"
   xmlns:inkscape="http://www.inkscape.org/namespaces/inkscape"
   version="1.1"
   id="svg2"
   xml:space="preserve"
   width="455.71066"
   height="385.15601"
   viewBox="0 0 455.71066 385.15601"
   sodipodi:docname="Logo Only.ai"><metadata
     id="metadata8"><rdf:RDF><cc:Work
         rdf:about=""><dc:format>image/svg+xml</dc:format><dc:type
           rdf:resource="http://purl.org/dc/dcmitype/StillImage" /></cc:Work></rdf:RDF></metadata><defs
     id="defs6"><clipPath
       clipPathUnits="userSpaceOnUse"
       id="clipPath18"><path
         d="m 52.156,144.425 c 0,-65.769 53.316,-119.084 119.083,-119.084 v 0 c 65.768,0 119.084,53.315 119.084,119.084 v 0 c 0,65.767 -53.316,119.082 -119.084,119.082 v 0 c -65.767,0 -119.083,-53.315 -119.083,-119.082"
         id="path16" /></clipPath><radialGradient
       fx="0"
       fy="0"
       cx="0"
       cy="0"
       r="1"
       gradientUnits="userSpaceOnUse"
       gradientTransform="matrix(119.08324,0,0,-119.08324,171.23944,144.42442)"
       spreadMethod="pad"
       id="radialGradient36"><stop
         style="stop-opacity:0.29999237;stop-color:#ffffff"
         offset="0"
         id="stop28" /><stop
         style="stop-opacity:0.29999237;stop-color:#ffffff"
         offset="0.39269864"
         id="stop30" /><stop
         style="stop-opacity:0.2;stop-color:#ffffff"
         offset="0.999999"
         id="stop32" /><stop
         style="stop-opacity:0.2;stop-color:#ffffff"
         offset="1"
         id="stop34" /></radialGradient><mask
       maskUnits="userSpaceOnUse"
       x="0"
       y="0"
       width="1"
       height="1"
       id="mask38"><g
         id="g48"><g
           id="g46"><g
             id="g44"><g
               id="g42"><path
                 d="M -32768,32767 H 32767 V -32768 H -32768 Z"
                 style="fill:url(#radialGradient36);stroke:none"
                 id="path40" /></g></g></g></g></mask><radialGradient
       fx="0"
       fy="0"
       cx="0"
       cy="0"
       r="1"
       gradientUnits="userSpaceOnUse"
       gradientTransform="matrix(119.08324,0,0,-119.08324,171.23944,144.42442)"
       spreadMethod="pad"
       id="radialGradient62"><stop
         style="stop-opacity:1;stop-color:#ffffff"
         offset="0"
         id="stop54" /><stop
         style="stop-opacity:1;stop-color:#ffffff"
         offset="0.39269864"
         id="stop56" /><stop
         style="stop-opacity:1;stop-color:#00965b"
         offset="0.999999"
         id="stop58" /><stop
         style="stop-opacity:1;stop-color:#00965b"
         offset="1"
         id="stop60" /></radialGradient><clipPath
       clipPathUnits="userSpaceOnUse"
       id="clipPath72"><path
         d="M 0,288.867 H 341.783 V 0 H 0 Z"
         id="path70" /></clipPath></defs><sodipodi:namedview
     pagecolor="#ffffff"
     bordercolor="#666666"
     borderopacity="1"
     objecttolerance="10"
     gridtolerance="10"
     guidetolerance="10"
     inkscape:pageopacity="0"
     inkscape:pageshadow="2"
     inkscape:window-width="640"
     inkscape:window-height="480"
     id="namedview4" /><g
     id="g10"
     inkscape:groupmode="layer"
     inkscape:label="Logo Only"
     transform="matrix(1.3333333,0,0,-1.3333333,0,385.156)"><g
       id="g12"><g
         id="g14"
         clip-path="url(#clipPath18)"><g
           id="g20"><g
             id="g22" /><g
             id="g50"
             mask="url(#mask38)"><g
               id="g52"><path
                 d="m 52.156,144.425 c 0,-65.769 53.316,-119.084 119.083,-119.084 v 0 c 65.768,0 119.084,53.315 119.084,119.084 v 0 c 0,65.767 -53.316,119.082 -119.084,119.082 v 0 c -65.767,0 -119.083,-53.315 -119.083,-119.082"
                 style="fill:url(#radialGradient62);stroke:none"
                 id="path64" /></g></g></g></g></g><g
       id="g66"><g
         id="g68"
         clip-path="url(#clipPath72)"><g
           id="g74"
           transform="translate(266.1692,69.6652)"><path
             d="m 0,0 c -0.024,-0.031 -0.048,-0.062 -0.071,-0.093 -22.178,-29.124 -57.314,-47.937 -96.865,-47.937 -37.903,0 -71.752,17.279 -94.027,44.353 l -1.451,0.385 c -1.451,0.385 -11.312,2.016 -11.312,2.016 23.533,-33.516 62.589,-55.438 106.79,-55.438 44.938,0 84.558,22.659 107.954,57.122 0,0 -8.584,-0.921 -9.406,-0.858 C 0.792,-0.387 0,0 0,0"
             style="fill:#00965b;fill-opacity:1;fill-rule:nonzero;stroke:none"
             id="path76" /></g><g
           id="g78"
           transform="translate(50.4431,115.7067)"><path
             d="m 0,0 c -1.961,8.622 -2.997,17.592 -2.997,26.804 0,66.758 54.38,120.876 121.461,120.876 67.081,0 121.461,-54.118 121.461,-120.876 0,-9.04 -0.997,-17.849 -2.888,-26.323 h 9.252 c 1.762,8.5 2.688,17.304 2.688,26.323 0,71.554 -58.286,129.559 -130.186,129.559 -71.9,0 -130.187,-58.005 -130.187,-129.559 0,-9.189 0.961,-18.155 2.79,-26.803 z"
             style="fill:#00965b;fill-opacity:1;fill-rule:nonzero;stroke:none"
             id="path80" /></g><g
           id="g82"
           transform="translate(325.6604,118.904)"><path
             d="m 0,0 c -8.315,1.889 -17.516,3.777 -26.605,6.095 -10.911,2.782 -21.403,2.656 -31.302,-3.319 -7.971,-4.812 -15.933,-9.642 -23.81,-14.604 -19.17,-12.076 -37.756,-25.176 -59.13,-33.348 -0.277,-0.106 -0.416,-0.569 -0.513,-0.71 9.128,1.522 18.196,3.637 27.38,4.445 21.686,1.907 43.429,3.178 65.147,4.734 11.234,0.805 20.943,4.723 28.443,13.535 C -13.525,-15.107 -6.405,-7.26 0,0 m -154.598,-37.062 c 1.289,8.347 2.065,16.813 3.967,25.018 4.865,20.99 10.232,41.864 15.397,62.785 2.492,10.096 3.679,20.233 -1.588,29.796 -5.878,10.671 -12.199,21.099 -17.766,30.667 -5.524,-9.509 -11.691,-19.878 -17.567,-30.408 -1.501,-2.691 -2.274,-5.845 -3.05,-8.871 -2.262,-8.821 0.492,-17.238 2.456,-25.666 6.446,-27.664 15.978,-54.664 18.151,-83.321 m -11.605,-10.71 c -0.358,0.414 -0.559,0.872 -0.885,0.994 -19.447,7.274 -36.35,19.101 -53.809,29.944 -10.459,6.495 -20.736,13.402 -31.705,18.908 -5.496,2.759 -12.562,4.457 -18.562,3.723 -12.776,-1.561 -25.321,-5.025 -36.819,-7.466 6.704,-7.617 13.941,-15.948 21.302,-24.167 5.697,-6.361 12.744,-10.713 21.268,-11.666 11.481,-1.284 23.035,-1.917 34.556,-2.849 14.064,-1.137 28.15,-2.062 42.179,-3.536 7.47,-0.784 14.838,-2.533 22.475,-3.885 m 19.11,8.302 c 0.49,-0.423 0.981,-0.847 1.471,-1.271 0.213,0.721 0.211,1.647 0.672,2.132 6.105,6.41 11.869,13.222 18.51,19.029 16.059,14.047 32.4,27.782 48.889,41.324 11.362,9.33 15.703,21.282 15.994,35.609 0.151,7.403 2.039,14.771 3.112,22.159 0.111,0.764 0.015,1.558 0.015,1.546 -9.195,-3.987 -18.282,-8.128 -27.527,-11.882 -10.571,-4.292 -18.245,-11.346 -22.529,-21.992 -4.14,-10.289 -8.104,-20.657 -12.534,-30.821 -7.238,-16.612 -14.757,-33.101 -22.251,-49.601 -1,-2.201 -2.535,-4.16 -3.822,-6.232 m -15.199,-1.122 c -4.133,8.092 -8.752,15.977 -12.303,24.316 -8.692,20.41 -16.927,41.015 -25.273,61.571 -4.487,11.055 -12.296,18.446 -23.34,23.013 -9.094,3.759 -17.82,8.405 -26.724,12.629 -0.153,0.072 -0.485,-0.231 -0.842,-0.416 0.838,-3.586 1.986,-7.149 2.45,-10.8 0.737,-5.795 1.355,-11.645 1.424,-17.479 0.164,-14.057 6.996,-24.23 17.338,-33.086 22.779,-19.505 47.755,-36.573 67.27,-59.748"
             style="fill:#87c540;fill-opacity:1;fill-rule:nonzero;stroke:none"
             id="path84" /></g><g
           id="g86"
           transform="translate(163.3689,78.3122)"><path
             d="m 0,0 c -19.515,23.175 -44.492,40.243 -67.271,59.748 -10.342,8.856 -17.173,19.029 -17.338,33.086 -0.068,5.834 -0.686,11.684 -1.423,17.479 -0.465,3.65 -1.613,7.214 -2.45,10.8 0.357,0.185 0.689,0.488 0.842,0.415 8.903,-4.223 17.63,-8.869 26.723,-12.629 11.045,-4.566 18.853,-11.957 23.341,-23.012 8.345,-20.556 16.58,-41.161 25.272,-61.571 C -8.752,15.977 -4.133,8.092 0,0"
             style="fill:#87c540;fill-opacity:1;fill-rule:nonzero;stroke:none"
             id="path88" /></g><g
           id="g90"
           transform="translate(178.5677,79.4343)"><path
             d="m 0,0 c 1.287,2.071 2.822,4.03 3.822,6.232 7.493,16.499 15.013,32.989 22.251,49.601 4.43,10.164 8.394,20.531 12.533,30.82 4.285,10.646 11.958,17.701 22.53,21.993 9.245,3.753 18.332,7.895 27.527,11.882 0,0.012 0.096,-0.782 -0.016,-1.547 -1.072,-7.388 -2.96,-14.755 -3.111,-22.159 C 85.245,82.496 80.903,70.543 69.542,61.213 53.053,47.671 36.712,33.937 20.652,19.89 14.012,14.083 8.248,7.271 2.143,0.86 1.682,0.375 1.684,-0.55 1.471,-1.271 0.98,-0.847 0.49,-0.423 0,0"
             style="fill:#87c540;fill-opacity:1;fill-rule:nonzero;stroke:none"
             id="path92" /></g><g
           id="g94"
           transform="translate(159.4578,71.1315)"><path
             d="m 0,0 c -7.637,1.353 -15.006,3.101 -22.476,3.886 -14.028,1.473 -28.114,2.399 -42.178,3.536 -11.521,0.931 -23.075,1.565 -34.556,2.849 -8.524,0.952 -15.572,5.305 -21.269,11.666 -7.361,8.219 -14.598,16.55 -21.302,24.167 11.499,2.441 24.043,5.904 36.82,7.466 6,0.733 13.065,-0.965 18.562,-3.723 C -75.43,44.34 -65.153,37.434 -54.695,30.938 -37.235,20.095 -20.332,8.269 -0.886,0.995 -0.559,0.872 -0.358,0.415 0,0"
             style="fill:#87c540;fill-opacity:1;fill-rule:nonzero;stroke:none"
             id="path96" /></g><g
           id="g98"
           transform="translate(171.0628,81.8425)"><path
             d="m 0,0 c -2.173,28.657 -11.705,55.657 -18.151,83.32 -1.965,8.428 -4.719,16.846 -2.456,25.667 0.776,3.026 1.549,6.18 3.05,8.87 5.876,10.531 12.042,20.899 17.567,30.409 5.566,-9.568 11.888,-19.996 17.765,-30.668 5.268,-9.562 4.08,-19.7 1.588,-29.796 C 14.198,66.881 8.832,46.007 3.967,25.018 2.065,16.812 1.289,8.347 0,0"
             style="fill:#87c540;fill-opacity:1;fill-rule:nonzero;stroke:none"
             id="path100" /></g><g
           id="g102"
           transform="translate(325.6604,118.904)"><path
             d="m 0,0 c -6.405,-7.26 -13.525,-15.107 -20.39,-23.172 -7.5,-8.812 -17.209,-12.73 -28.443,-13.535 -21.718,-1.556 -43.461,-2.827 -65.147,-4.734 -9.184,-0.808 -18.252,-2.923 -27.38,-4.445 0.097,0.141 0.236,0.604 0.513,0.71 21.374,8.172 39.96,21.272 59.13,33.348 7.877,4.962 15.839,9.792 23.81,14.604 9.899,5.975 20.391,6.101 31.302,3.319 C -17.516,3.777 -8.315,1.889 0,0"
             style="fill:#87c540;fill-opacity:1;fill-rule:nonzero;stroke:none"
             id="path104" /></g><g
           id="g106"
           transform="translate(83.3279,185.842)"><path
             d="m 0,0 c 0,0 4.52,-0.329 4.52,-11.848 0,-11.519 -2.798,-15.139 6.349,-21.064"
             style="fill:#87c540;fill-opacity:1;fill-rule:nonzero;stroke:#ffffff;stroke-width:1;stroke-linecap:butt;stroke-linejoin:miter;stroke-miterlimit:10;stroke-dasharray:none;stroke-opacity:1"
             id="path108" /></g><g
           id="g110"
           transform="translate(31.9529,108.4553)"><path
             d="m 0,0 c 0,0 1.943,1.28 9.578,-7.346 7.633,-8.626 8.965,-12.281 16.382,-13.628"
             style="fill:#87c540;fill-opacity:1;fill-rule:nonzero;stroke:#ffffff;stroke-width:1;stroke-linecap:butt;stroke-linejoin:miter;stroke-miterlimit:10;stroke-dasharray:none;stroke-opacity:1"
             id="path112" /></g><g
           id="g114"
           transform="translate(168.2107,215.1476)"><path
             d="m 0,0 c 0,0 1.908,-1.333 -3.286,-11.614 -5.193,-10.282 -8.098,-12.87 -6.608,-20.26"
             style="fill:#87c540;fill-opacity:1;fill-rule:nonzero;stroke:#ffffff;stroke-width:1;stroke-linecap:butt;stroke-linejoin:miter;stroke-miterlimit:10;stroke-dasharray:none;stroke-opacity:1"
             id="path116" /></g><g
           id="g118"
           transform="translate(254.9007,187.8264)"><path
             d="m 0,0 c 0,0 0.682,-2.225 -9.743,-7.125 -10.425,-4.899 -14.309,-5.148 -17.687,-11.888"
             style="fill:#87c540;fill-opacity:1;fill-rule:nonzero;stroke:#ffffff;stroke-width:1;stroke-linecap:butt;stroke-linejoin:miter;stroke-miterlimit:10;stroke-dasharray:none;stroke-opacity:1"
             id="path120" /></g><g
           id="g122"
           transform="translate(310.3225,119.2707)"><path
             d="M 0,0 C 0,0 -0.771,-2.196 -12.07,0.046 -23.369,2.288 -26.643,4.391 -33.36,0.97"
             style="fill:#87c540;fill-opacity:1;fill-rule:nonzero;stroke:#ffffff;stroke-width:1;stroke-linecap:butt;stroke-linejoin:miter;stroke-miterlimit:10;stroke-dasharray:none;stroke-opacity:1"
             id="path124" /></g></g></g></g></svg>
