<?xml version="1.0" standalone="no"?>
<!DOCTYPE svg PUBLIC "-//W3C//DTD SVG 20010904//EN"
 "http://www.w3.org/TR/2001/REC-SVG-20010904/DTD/svg10.dtd">
<svg version="1.0" xmlns="http://www.w3.org/2000/svg"
 width="150.000000pt" height="127.000000pt" viewBox="0 0 150.000000 127.000000"
 preserveAspectRatio="xMidYMid meet">

<g transform="translate(0.000000,127.000000) scale(0.100000,-0.100000)"
fill="#000000" stroke="none">
<path d="M622 1175 c-209 -47 -373 -206 -427 -412 -19 -73 -20 -223 -2 -223
10 0 13 22 14 83 1 233 141 429 364 509 94 33 257 32 349 -3 214 -81 341 -254
359 -492 7 -91 25 -107 29 -26 13 241 -162 479 -407 555 -69 22 -205 26 -279
9z"/>
<path d="M1120 245 c-30 -30 -84 -70 -120 -89 -212 -112 -453 -81 -627 80 -65
61 -98 73 -63 23 33 -45 116 -107 193 -145 161 -77 370 -68 526 23 47 27 171
139 171 155 0 21 -30 3 -80 -47z"/>
</g>
</svg>
